<svg xmlns="http://www.w3.org/2000/svg" x="0px" y="0px"
     width="96" height="96"
     viewBox="0 0 172 172"
     style=" fill:#000000;"><g fill="none" fill-rule="nonzero" stroke="none" stroke-width="1" stroke-linecap="butt" stroke-linejoin="miter" stroke-miterlimit="10" stroke-dasharray="" stroke-dashoffset="0" font-family="none"  font-size="none" text-anchor="none" style="mix-blend-mode: normal"><path d="M0,172v-172h172v172z" fill="none"></path><g><path d="M143.33333,143.33333h-114.66667c-2.56925,0 -4.93425,-1.37242 -6.2135,-3.59767c-1.27567,-2.22525 -1.2685,-4.96292 0.02508,-7.181l57.33333,-100.33333c1.28283,-2.20017 3.64067,-3.55467 6.18842,-3.55467c2.54775,0 4.90558,1.3545 6.192,3.55467l57.33333,100.33333c1.29358,2.21808 1.30075,4.95575 0.02508,7.181c-1.27567,2.22525 -3.65142,3.59767 -6.21708,3.59767z" fill="#c90029"></path><path d="M78.83333,122.34217c0,-0.96392 0.16842,-1.84542 0.51242,-2.67317c0.33683,-0.817 0.82058,-1.5265 1.44408,-2.12133c0.61275,-0.602 1.36883,-1.07142 2.236,-1.40825c0.87433,-0.32967 1.85617,-0.50525 2.95267,-0.50525c1.0965,0 2.0855,0.17558 2.967,0.50525c0.89583,0.33683 1.65192,0.80625 2.26467,1.40825c0.62708,0.59483 1.11083,1.30433 1.44408,2.12133c0.344,0.82775 0.51242,1.70925 0.51242,2.67317c0,0.9675 -0.16842,1.849 -0.51242,2.65167c-0.33683,0.80625 -0.82058,1.50142 -1.44408,2.107c-0.61275,0.59483 -1.36883,1.06067 -2.26467,1.40467c-0.8815,0.32967 -1.8705,0.4945 -2.967,0.4945c-1.10008,0 -2.07833,-0.16483 -2.95267,-0.49808c-0.86717,-0.344 -1.62325,-0.80983 -2.236,-1.40467c-0.62708,-0.60558 -1.11083,-1.30075 -1.44408,-2.107c-0.344,-0.80267 -0.51242,-1.68417 -0.51242,-2.64808M91.30333,107.5h-10.65325l-1.50858,-43h13.66683z" fill="white"></path></g></g></svg>